# xmcd
#
# Track frame offsets: 
#        150
#        17544
#        42327
#        60194
#        80687
#        114373
#        136700
#        153289
#        169201
#        190129
#        204009
#
# Disc length: 2995 seconds
#
# Revision: 0
# Processed by: cddbd v1.5.2PL0 Copyright (c) Steve Scherf et al.
# Submitted via: ExactAudioCopy v0.99pb1
#
DISCID=7b0bb10b
DTITLE=61 South - 61 South
DYEAR=2008
DGENRE=
TTITLE0=Let's Work Together
TTITLE1=Further On Up The Road
TTITLE2=Kiss The Blues Goodbye
TTITLE3=12 Gates To The City
TTITLE4=Everybody Wants To Go To Heaven
TTITLE5=Mean Old World
TTITLE6=You Got To Move
TTITLE7=Shake Your Hips
TTITLE8=Made It So
TTITLE9=Blues Have Got To Go
TTITLE10=Bluesman For Life
EXTD=
EXTT0=
EXTT1=
EXTT2=
EXTT3=
EXTT4=
EXTT5=
EXTT6=
EXTT7=
EXTT8=
EXTT9=
EXTT10=
PLAYORDER=
